<svg viewBox="0 0 32 32" xmlns="http://www.w3.org/2000/svg"><path d="m5 5v22h22v-22zm2 2h18v18h-18zm13.126953 1.8769531c-.77 0-1.543.293-2.125.875l-8.2656249 8.2656249-.03125.3125-.46875 3.314453-.21875 1.34375 1.3437499-.21875 3.3125-.46875.3125-.03125 8.267578-8.265625c1.16-1.16 1.16-3.09 0-4.2499998-.583-.5829999-1.356953-.8769531-2.126953-.8769531zm0 1.9999999c.254 0 .51975.08225.71875.28125.387.387.39825.977.03125 1.375l-.03125.03125-7.796875 7.828125-1.65625.21875.21875-1.65625 7.828125-7.796875c.199-.199.4345-.28125.6875-.28125z"/></svg>