<svg height="448" viewBox="0 0 512 448" width="512" xmlns="http://www.w3.org/2000/svg"><path d="m160 128v32 128 32h192v-32-128-32zm32 32h128v128h-128zm-169.373047-160-22.626953 22.628906 73.371094 73.371094h-41.371094v32h64 32v-32-64h-32v41.373047zm470.253907 0-76.88086 76.880859v-44.880859h-32v64 32h32 64v-32h-44.88086l76.88086-76.880859zm-460.88086 320v32h41.373047l-73.373047 73.37305 22.626953 22.62695 73.373047-73.37109v41.37109h32v-64-32h-32zm352 0v32 64h32v-41.37109l73.37305 73.37109 22.62695-22.62695-73.37305-73.37305h41.37305v-32h-64z"/></svg>